<svg width="25" height="25" viewBox="0 0 25 25" fill="none" xmlns="http://www.w3.org/2000/svg">
<path d="M20.8333 6.24999H16.6667V5.20833C16.6667 4.37953 16.3374 3.58467 15.7514 2.99862C15.1653 2.41257 14.3704 2.08333 13.5417 2.08333H11.4583C10.6296 2.08333 9.83468 2.41257 9.24863 2.99862C8.66257 3.58467 8.33333 4.37953 8.33333 5.20833V6.24999H4.16667C3.8904 6.24999 3.62545 6.35974 3.43009 6.55509C3.23475 6.75044 3.125 7.01539 3.125 7.29166C3.125 7.56793 3.23475 7.83288 3.43009 8.02823C3.62545 8.22358 3.8904 8.33333 4.16667 8.33333H5.20833V19.7917C5.20833 20.6204 5.53757 21.4153 6.12363 22.0013C6.70968 22.5874 7.50453 22.9167 8.33333 22.9167H16.6667C17.4954 22.9167 18.2903 22.5874 18.8764 22.0013C19.4624 21.4153 19.7917 20.6204 19.7917 19.7917V8.33333H20.8333C21.1096 8.33333 21.3746 8.22358 21.5699 8.02823C21.7652 7.83288 21.875 7.56793 21.875 7.29166C21.875 7.01539 21.7652 6.75044 21.5699 6.55509C21.3746 6.35974 21.1096 6.24999 20.8333 6.24999ZM10.4167 5.20833C10.4167 4.93206 10.5265 4.66711 10.7218 4.47176C10.9171 4.27641 11.1821 4.16666 11.4583 4.16666H13.5417C13.8179 4.16666 14.0829 4.27641 14.2782 4.47176C14.4735 4.66711 14.5833 4.93206 14.5833 5.20833V6.24999H10.4167V5.20833ZM17.7083 19.7917C17.7083 20.0679 17.5985 20.3329 17.4032 20.5282C17.2079 20.7235 16.9429 20.8333 16.6667 20.8333H8.33333C8.05706 20.8333 7.79211 20.7235 7.59676 20.5282C7.40142 20.3329 7.29167 20.0679 7.29167 19.7917V8.33333H17.7083V19.7917Z" fill="black"/>
</svg>
